# xmcd CD database file
#
# Track frame offsets:
#	151
#	15798
#	28959
#	40996
#	63173
#	81716
#	100725
#	117206
#	130961
#	144934
#	158699
#	172706
#	190085
#	203390
#	215947
#	229142
#	241022
#	256429
#	270564
#	290005
#	306748
#
# Disc length: 4330 seconds
#
# Revision: 0
# Processed by: cddbd v1.5.1PL0 Copyright (c) Steve Scherf et al.
# Submitted via: CDex 1.51
#
DISCID=2610e815
DTITLE=Jazz - Best of Jazz 2-2
DYEAR=1900
DGENRE=Jazz
TTITLE0=New York New Yor
TTITLE1=When a man loves a woman
TTITLE2=Smoke gets in your eyes
TTITLE3=Stand by me
TTITLE4=This masquerade
TTITLE5=I can't stop loving you
TTITLE6=Unchained melody
TTITLE7=Now he dances, she dances
TTITLE8=A man and a woman
TTITLE9=Oh Pretty woman
TTITLE10=The shadow of your smile
TTITLE11=Sunrise sunset
TTITLE12=Three coins in the fountain
TTITLE13=Moon river
TTITLE14=Tell Laura I love her
TTITLE15=Only You
TTITLE16=Just for a little thrill
TTITLE17=Are you lonesome tonight
TTITLE18=Manhattan
TTITLE19=Exactly like you
TTITLE20=Night and Day
EXTD=
EXTT0=
EXTT1=
EXTT2=
EXTT3=
EXTT4=
EXTT5=
EXTT6=
EXTT7=
EXTT8=
EXTT9=
EXTT10=
EXTT11=
EXTT12=
EXTT13=
EXTT14=
EXTT15=
EXTT16=
EXTT17=
EXTT18=
EXTT19=
EXTT20=
PLAYORDER=
